<svg width="28" height="28" viewBox="0 0 28 28" fill="none" xmlns="http://www.w3.org/2000/svg">
<path d="M17.6267 9.72008L11.9067 15.4534L9.70667 13.2534C9.58714 13.1138 9.44005 13.0005 9.27463 12.9204C9.10921 12.8404 8.92903 12.7954 8.7454 12.7884C8.56178 12.7813 8.37867 12.8122 8.20757 12.8792C8.03647 12.9463 7.88107 13.0479 7.75113 13.1779C7.62119 13.3078 7.51952 13.4632 7.45248 13.6343C7.38545 13.8054 7.35451 13.9885 7.3616 14.1722C7.36869 14.3558 7.41367 14.536 7.4937 14.7014C7.57373 14.8668 7.68709 15.0139 7.82667 15.1334L10.96 18.2801C11.0846 18.4037 11.2323 18.5014 11.3948 18.5678C11.5572 18.6341 11.7312 18.6678 11.9067 18.6667C12.2565 18.6653 12.5917 18.5264 12.84 18.2801L19.5067 11.6134C19.6316 11.4895 19.7308 11.342 19.7985 11.1795C19.8662 11.017 19.9011 10.8428 19.9011 10.6667C19.9011 10.4907 19.8662 10.3165 19.7985 10.154C19.7308 9.9915 19.6316 9.84403 19.5067 9.72008C19.2568 9.47175 18.9189 9.33236 18.5667 9.33236C18.2144 9.33236 17.8765 9.47175 17.6267 9.72008ZM14 0.666748C11.3629 0.666748 8.78505 1.44873 6.5924 2.91382C4.39974 4.37891 2.69077 6.46129 1.68161 8.89764C0.672437 11.334 0.408393 14.0149 0.922863 16.6013C1.43733 19.1877 2.70721 21.5635 4.57191 23.4282C6.43661 25.2929 8.81238 26.5628 11.3988 27.0772C13.9852 27.5917 16.6661 27.3276 19.1024 26.3185C21.5388 25.3093 23.6212 23.6003 25.0863 21.4077C26.5513 19.215 27.3333 16.6372 27.3333 14.0001C27.3333 12.2491 26.9885 10.5153 26.3184 8.89764C25.6483 7.27996 24.6662 5.81011 23.4281 4.57199C22.19 3.33388 20.7201 2.35175 19.1024 1.68169C17.4848 1.01162 15.751 0.666748 14 0.666748V0.666748ZM14 24.6667C11.8903 24.6667 9.82804 24.0412 8.07392 22.8691C6.31979 21.697 4.95262 20.0311 4.14529 18.082C3.33795 16.133 3.12671 13.9882 3.53829 11.9191C3.94987 9.84999 4.96577 7.94937 6.45753 6.45761C7.94929 4.96585 9.84991 3.94995 11.919 3.53837C13.9882 3.1268 16.1329 3.33803 18.082 4.14537C20.031 4.9527 21.6969 6.31987 22.869 8.074C24.0411 9.82812 24.6667 11.8904 24.6667 14.0001C24.6667 16.8291 23.5429 19.5422 21.5425 21.5426C19.5421 23.5429 16.829 24.6667 14 24.6667V24.6667Z" fill="#6FCF97"/>
</svg>